<svg id="Layer_1" data-name="Layer 1" xmlns="http://www.w3.org/2000/svg" viewBox="0 0 499.66 423.93"><defs><style>.cls-1{fill:#d79e6d;}.cls-1,.cls-11,.cls-8{stroke:#424143;stroke-miterlimit:10;stroke-width:12px;}.cls-2{fill:#e6e7e8;}.cls-3{fill:#404041;}.cls-4{fill:#8d8d8d;}.cls-5{fill:#a6a8ab;}.cls-6{fill:#6d6e6e;}.cls-7{fill:#8b8d8e;}.cls-8{fill:#e9a468;}.cls-9{fill:#d79e6c;}.cls-10{fill:#f4f4f3;}.cls-11{fill:#edb988;}</style></defs><title>icon</title><path class="cls-1" d="M75,151.19V347.58c0,10.69,10.22,18.24,20.1,14.83l152-52.39a15.63,15.63,0,0,0,10.39-14.84V109c0-10.31-9.53-17.8-19.22-15.11l-152,42.18A15.6,15.6,0,0,0,75,151.19Z" transform="translate(-5.94 -47.73)"/><path class="cls-2" d="M107.32,118.17v204c0,11.12,10.22,19,20.1,15.42l152-54.44a16.2,16.2,0,0,0,10.39-15.41V74.34c0-10.71-9.53-18.49-19.23-15.69l-152,43.82C111.94,104.39,107.32,110.82,107.32,118.17Z" transform="translate(-5.94 -47.73)"/><path class="cls-3" d="M163.05,105.57V302c0,10.7,9.54,18.25,18.75,14.84l141.81-52.4c5.79-2.14,9.69-8.11,9.69-14.83V63.39c0-10.31-8.89-17.8-17.94-15.11L173.56,90.46C167.36,92.31,163.05,98.5,163.05,105.57Z" transform="translate(-5.94 -47.73)"/><path class="cls-4" d="M184.32,121.15,178,305.6c-.35,10,6.85,17.39,14.16,14.44l112.43-45.39c4.59-1.85,7.83-7.35,8.05-13.67l6-174.86c.33-9.68-6.37-17-13.52-14.67L193,107.24C188.12,108.81,184.55,114.51,184.32,121.15Z" transform="translate(-5.94 -47.73)"/><polygon class="cls-5" points="251.55 330.8 188.53 316.4 188.53 120.89 252.77 131.05 251.55 330.8"/><polygon class="cls-6" points="419.48 99.22 351.27 94.05 188.53 120.89 253.26 131.03 332.76 115.78 419.48 99.22"/><polygon class="cls-7" points="419.48 308.93 252.77 326.56 252.77 131.05 419.48 99.22 419.48 308.93"/><path class="cls-8" d="M77.16,196.17l182.53,35.44,178.18-35.32c6.53-1.29,12.69,3.32,12.69,9.5l-.07,191.28a9.78,9.78,0,0,1-7,9.17L259.69,465.36,71.68,407a9.8,9.8,0,0,1-7.16-9.21V205.67C64.52,199.51,70.65,194.9,77.16,196.17Z" transform="translate(-5.94 -47.73)"/><polygon class="cls-9" points="437.62 351.18 254.18 408.19 254.18 195.06 437.62 154.81 437.62 351.18"/><polygon class="cls-10" points="146.76 352.05 84.63 334.32 84.62 275.68 146.33 289.1 146.76 352.05"/><path class="cls-11" d="M72,189.84,12.38,262.07c-2.59,3.15,6.74,14.08,13.54,15.87l172.55,45.28c1.57.41,2.7.19,3.2-.63l49.11-81c2.13-3.52-7.38-14.27-13.93-15.74L74.79,189.33C73.47,189,72.49,189.21,72,189.84Z" transform="translate(-5.94 -47.73)"/><path class="cls-11" d="M443.05,197.72l56.17,74.93c2.44,3.27-7.64,14-14.63,15.59L307.2,328.31c-1.62.37-2.76.1-3.21-.74L259,244.1c-2-3.62,8.3-14.17,15-15.44l166.26-31.55C441.58,196.86,442.56,197.07,443.05,197.72Z" transform="translate(-5.94 -47.73)"/></svg>