<?xml version="1.0" encoding="utf-8"?>
<!-- Generator: Adobe Illustrator 23.1.0, SVG Export Plug-In . SVG Version: 6.00 Build 0)  -->
<svg version="1.1" id="Layer_1" xmlns="http://www.w3.org/2000/svg" xmlns:xlink="http://www.w3.org/1999/xlink" x="0px" y="0px"
	 viewBox="0 0 512 112" style="enable-background:new 0 0 512 112;" xml:space="preserve">
<style type="text/css">
	.st0{fill:#D79E6D;stroke:#424143;stroke-width:1.5;stroke-miterlimit:10;}
	.st1{fill:#E6E7E8;}
	.st2{fill:#404041;}
	.st3{fill:#8D8D8D;}
	.st4{fill:#A6A8AB;}
	.st5{fill:#6D6E6E;}
	.st6{fill:#8B8D8E;}
	.st7{fill:#E9A468;stroke:#424143;stroke-width:1.5;stroke-miterlimit:10;}
	.st8{fill:#D79E6C;}
	.st9{fill:#F4F4F3;}
	.st10{fill:#EDB988;stroke:#424143;stroke-width:1.5;stroke-miterlimit:10;}
	.st11{fill:#231F20;}
	.st12{font-family:'SegoeUI';}
	.st13{font-size:31.1119px;}
	.st14{font-size:12.6583px;}
</style>
<path class="st0" d="M19.48,42.78V65.2c0,1.22,1.17,2.08,2.29,1.69l17.35-5.98c0.71-0.24,1.19-0.93,1.19-1.69V37.97
	c0-1.18-1.09-2.03-2.2-1.72l-17.35,4.82C20,41.27,19.48,41.98,19.48,42.78z"/>
<path class="st1" d="M23.16,39.01v23.29c0,1.27,1.17,2.16,2.29,1.76l17.35-6.21c0.71-0.25,1.19-0.96,1.19-1.76V34.01
	c0-1.22-1.09-2.11-2.2-1.79l-17.35,5C23.69,37.44,23.16,38.17,23.16,39.01z"/>
<path class="st2" d="M29.53,37.58V60c0,1.22,1.09,2.08,2.14,1.69l16.19-5.98c0.66-0.24,1.11-0.93,1.11-1.69V32.76
	c0-1.18-1.02-2.03-2.05-1.72l-16.19,4.82C30.02,36.06,29.53,36.77,29.53,37.58z"/>
<path class="st3" d="M31.95,39.35l-0.73,21.06c-0.04,1.15,0.78,1.99,1.62,1.65l12.84-5.18c0.52-0.21,0.89-0.84,0.92-1.56l0.69-19.96
	c0.04-1.11-0.73-1.94-1.54-1.68l-12.8,4.09C32.39,37.95,31.98,38.6,31.95,39.35z"/>
<polygon class="st4" points="40.31,68.74 33.11,67.09 33.11,44.77 40.45,45.93 "/>
<polygon class="st5" points="59.48,42.3 51.69,41.71 33.11,44.77 40.5,45.93 49.58,44.19 "/>
<polygon class="st6" points="59.48,66.24 40.45,68.25 40.45,45.93 59.48,42.3 "/>
<path class="st7" d="M19.72,47.92l20.84,4.05l20.34-4.03c0.75-0.15,1.45,0.38,1.45,1.08l-0.01,21.84c0,0.47-0.32,0.89-0.8,1.05
	l-20.98,6.75l-21.46-6.66c-0.49-0.15-0.82-0.57-0.82-1.05V49C18.28,48.3,18.98,47.77,19.72,47.92z"/>
<polygon class="st8" points="61.55,71.06 40.61,77.57 40.61,53.24 61.55,48.65 "/>
<polygon class="st9" points="28.34,71.16 21.25,69.14 21.25,62.44 28.29,63.98 "/>
<path class="st10" d="M19.13,47.2l-6.8,8.25c-0.3,0.36,0.77,1.61,1.55,1.81l19.7,5.17c0.18,0.05,0.31,0.02,0.37-0.07l5.61-9.25
	c0.24-0.4-0.84-1.63-1.59-1.8l-18.5-4.17C19.3,47.1,19.19,47.12,19.13,47.2z"/>
<path class="st10" d="M61.49,48.1l6.41,8.56c0.28,0.37-0.87,1.6-1.67,1.78L45.98,63c-0.19,0.04-0.31,0.01-0.37-0.08l-5.14-9.53
	c-0.22-0.41,0.95-1.62,1.71-1.76l18.98-3.6C61.32,48,61.44,48.02,61.49,48.1z"/>
<text transform="matrix(1 0 0 1 79.2498 72.4732)" class="st11 st12 st13">Material Management System</text>
<text transform="matrix(1 0 0 1 82.4383 44.1842)" class="st11 st12 st14">Mizoram State e-Governance Society (MSeGS)</text>
</svg>
